<svg height="244" viewBox="0 0 510 244" width="510" xmlns="http://www.w3.org/2000/svg"><path d="m468.4 16h23.6v165.2h-23.6z" fill="#263a29"/><path d="m350.4 63.2h23.6v70.8h-23.6z" fill="#263a29"/><path d="m397.6 63.2h23.6v23.6h-23.6z" fill="#41644a"/><g fill="#263a29"><path d="m444.8 110.4v23.6h-94.4v-23.6z"/><path d="m444.8 181.2h-23.6v-70.8h23.6z"/><path d="m350.4 181.2v-23.6h94.4v23.6z"/><path d="m256 86.8v-23.6h70.8v23.6z"/><path d="m279.6 134h-23.6v-70.8h23.6z"/><path d="m256 134v-23.6h70.8v23.6z"/><path d="m326.8 181.2h-23.6v-70.8h23.6z"/><path d="m232.4 181.2v-23.6h94.4v23.6z"/><path d="m232.4 181.2h-23.6v-165.2h23.6z"/><path d="m185.2 181.2h-23.6v-118h23.6z"/><path d="m114.4 181.2v-23.6h70.8v23.6z"/><path d="m138 86.8h-23.6v-70.8h23.6z"/><path d="m138 16v23.6h-70.8v-23.6z"/><path d="m67.2 16h23.6v165.2h-23.6z"/><path d="m90.8 157.6v23.6h-70.8v-23.6z"/><path d="m43.6 181.2h-23.6v-70.8h23.6z"/></g><path d="m43.6 63.2h-23.6v-47.2h23.6z" fill="#41644a"/><path d="m256 39.6v-23.6h188.8v23.6z" fill="#41644a"/><path d="m20 228.4v-23.6h472v23.6z" fill="#41644a"/></svg>