<?xml version="1.0" encoding="UTF-8"?><svg id="Layer_1" xmlns="http://www.w3.org/2000/svg" xmlns:xlink="http://www.w3.org/1999/xlink" viewBox="0 0 1011.11 1013.75"><defs><clipPath id="clippath"><rect width="1011.11" height="1011.11" rx="60.85" ry="60.85" fill="none"/></clipPath></defs><rect width="1011.11" height="1011.11" rx="60.85" ry="60.85" fill="#f5efe7"/><g clip-path="url(#clippath)" fill="none"><path d="m0,1013.75v-102.64h1011.11v102.64H0Z" fill="#41644a"/></g><path d="m903.19,300.08h44.6v312.23h-44.6v-312.23Z" fill="#263a29"/><path d="m680.16,389.29h44.6v133.81h-44.6v-133.81Z" fill="#263a29"/><path d="m769.37,389.29h44.6v44.6h-44.6v-44.6Z" fill="#41644a"/><path d="m858.58,478.5v44.6h-178.42v-44.6h178.42Z" fill="#263a29"/><path d="m858.58,612.31h-44.6v-133.81h44.6v133.81Z" fill="#263a29"/><path d="m680.16,612.31v-44.6h178.42v44.6h-178.42Z" fill="#263a29"/><path d="m501.75,433.89v-44.6h133.81v44.6h-133.81Z" fill="#263a29"/><path d="m546.35,523.1h-44.6v-133.81h44.6v133.81Z" fill="#263a29"/><path d="m501.75,523.1v-44.6h133.81v44.6h-133.81Z" fill="#263a29"/><path d="m635.56,612.31h-44.6v-133.81h44.6v133.81Z" fill="#263a29"/><path d="m457.14,612.31v-44.6h178.42v44.6h-178.42Z" fill="#263a29"/><path d="m457.14,612.31h-44.6v-312.23h44.6v312.23Z" fill="#263a29"/><path d="m367.93,612.31h-44.6v-223.02h44.6v223.02Z" fill="#263a29"/><path d="m234.12,612.31v-44.6h133.81v44.6h-133.81Z" fill="#263a29"/><path d="m278.73,433.89h-44.6v-133.81h44.6v133.81Z" fill="#263a29"/><path d="m278.73,300.08v44.6h-133.81v-44.6h133.81Z" fill="#263a29"/><path d="m144.91,300.08h44.6v312.23h-44.6v-312.23Z" fill="#263a29"/><path d="m189.52,567.71v44.6H55.7v-44.6h133.81Z" fill="#263a29"/><path d="m100.31,612.31h-44.6v-133.81h44.6v133.81Z" fill="#263a29"/><path d="m100.31,389.29h-44.6v-89.21h44.6v89.21Z" fill="#41644a"/><path d="m501.75,344.68v-44.6h356.83v44.6h-356.83Z" fill="#41644a"/><path d="m55.7,701.52v-44.6h892.08v44.6H55.7Z" fill="#41644a"/></svg>