<svg height="512" viewBox="0 0 512 512" width="512" xmlns="http://www.w3.org/2000/svg"><path d="m17 80c0-33.1 26.9-60 60-60h358c33.1 0 60 26.9 60 60v358c0 33.1-26.9 60-60 60h-358c-33.1 0-60-26.9-60-60z" fill="#f5efe7"/><g fill="#213555"><path d="m441 102.4h.4c11.1 0 20 9 20 20v41.4h-20.4z"/><path d="m400 122.9v-20.5h41.4c11.1 0 20 9 20 20v.5z"/><path d="m379.6 163.8v-20.4h81.8v20.4z"/><path d="m174.9 163.8v-20.4h225.1v20.4z"/><path d="m359.1 163.8h-20.5v-61.4h.5c11 0 20 9 20 20z"/><path d="m339.1 102.4c11 0 20 9 20 20v.5h-122.8v-20.5z"/><path d="m236.3 102.4h20.4v61.4h-20.4z"/><path d="m195.3 102.4h.5c11.1 0 20 9 20 20v41.4h-20.5z"/><path d="m52.1 163.8v-20.4h143.2v20.4z"/><path d="m133.9 102.4h.5c11.1 0 20 9 20 20v41.4h-20.5z"/><path d="m52.1 102.4h20.4v61.4h-20.4z"/><path d="m93 102.4h20.5v20.5h-20.5z"/><path d="m461.4 327.6h-20.4v-143.3h20.4z"/><path d="m420.5 286.6h-20.5v-102.3c11.3 0 20.5 9.2 20.5 20.5z"/><path d="m359.1 286.6v-20.4h61.4v20.4z"/><path d="m318.2 286.6v-20.4h61.4v20.4z"/><path d="m359.1 266.2h20.5v61.4h-20.5z"/><path d="m318.2 266.2h20.4v61.4h-20.4z"/><path d="m379.6 307.1v20.5h-102.4v-20.5z"/><path d="m174.9 327.6v-20.5h143.3v20.5z"/><path d="m277.2 266.2h.5c11 0 20 8.9 20 20v41.4h-20.5z"/><path d="m236.3 266.2h20.4v61.4h-20.4z"/><path d="m195.3 266.2h20.5v61.4h-20.5z"/><path d="m154.4 184.3h.5c11 0 20 9 20 20v123.3h-20.5z"/><path d="m133.9 327.6v-20.5h61.4v20.5z"/><path d="m52.1 327.6v-20.5h102.3v20.5z"/><path d="m113.5 266.2h.4c11.1 0 20 8.9 20 20v41.4h-20.4z"/><path d="m72.5 266.2h20.5v61.4h-20.5z"/><path d="m72.5 286.6v-20.4h41.4c11.1 0 20 8.9 20 20v.4z"/><path d="m72.5 368.5h-20.4v-61.4h20.4z"/><path d="m52.1 368.5v-20.5h409.3v20.5z"/></g><path d="m52.1 82v-.5c0-11.1 8.9-20 20-20h369.3c11.1 0 20 8.9 20 20v.5z" fill="#4f709c"/><path d="m195.3 204.8v-20.5h184.3v20.5z" fill="#4f709c"/><path d="m195.3 245.7v-20.5h184.3v20.5z" fill="#4f709c"/><path d="m52.1 204.8v-20.5h81.8v20.5z" fill="#4f709c"/><path d="m52.1 245.7v-20.5h81.8v20.5z" fill="#4f709c"/><path d="m400 327.6v-20.5h20.5v20.5z" fill="#4f709c"/><path d="m61.2 428.6 6.4 6.5-6.7 12.6-11.4.1v-.7zm35.2 7.3-1.2 1.3q-4.1 0-6.9-1.2-2.8-1.1-4.8-3.6-1.9-2.4-3.8-6.3l-4.8-10.9 4 1q-2.6 0-4.7.9-2.1.7-3.6 1.9-1.5 1.3-2.3 2.8-.8 1.5-.8 3.2 0 2.1 1.2 3.5 1.2 1.4 3.2 2.1 1.9.7 4.1.7 2.6 0 5-.7 2.4-.6 3.8-1.3l1.2.5-2.3 8.7q-2.4 1.1-4.9 1.7-2.5.6-4.6.6-2 0-4.2-.4-2.3-.4-4.5-1.4-2.2-1.1-4-2.8-1.8-1.7-2.9-4.2-1.1-2.6-1.1-6-.1-4.8 1.9-8.4 2.1-3.5 5.6-6 3.5-2.5 7.7-3.7 4.3-1.3 8.7-1.3l1.2.6 5.1 13.2q1.6 3.9 3.7 5.8 2.1 2 4.9 2zm24.4.9-25.6.3v-7.8l1.2-1.2 11.8-.2-3.5 1.7q-.7-.7-1-2.4-.4-1.7-.4-4.3l-.3-30.7 10-1.2h.6l.5 41.3-4.4-4.4 12.3-.1v7.8zm61.3-.7-61.3.7v-7.8l1.1-1.2 11.1-.2-3.5 1.8q-.7-.7-1-2.3-.2-1.5-.2-3.8l-.2-13.7 10-1.2h.7l.2 23.6-4.4-4.4 16.5-.2-3.5 1.8q-.7-.7-1-2.3-.2-1.6-.2-3.8l-.2-15.7 10-1.2h.6l.3 25.6-4.4-4.4 16.6-.2-3.5 1.7q-.7-.8-1-2.5-.3-1.7-.3-4.2l-.2-16.9 10-1.2.6-.1.3 27.6-4.3-4.4 11.4-.1.1 7.8zm-.5-9 10.4-.1 2.6 8.9-14.1.2-.1-7.8zm43.3 7.3-1.2 1.2q-4.1.1-6.9-1.1-2.8-1.2-4.8-3.6-2-2.5-3.8-6.4l-4.8-10.9 3.7 1q-2.5.1-4.6.9-2 .8-3.5 2-1.5 1.2-2.3 2.8-.7 1.5-.7 3.1 0 2.2 1.2 3.6 1.3 1.4 3.2 2.1 1.9.7 4 .7 2.7-.1 5.1-.7 2.4-.6 3.8-1.4l1.2.6-2.4 8.7q-2.4 1-4.8 1.7-2.4.5-4.6.6-2 0-4.2-.4-2.3-.5-4.5-1.5-2.2-1-4-2.7-1.8-1.7-2.9-4.3-1.1-2.5-1.1-5.9-.1-4.8 1.9-8.4 2.1-3.6 5.6-6 3.5-2.5 7.7-3.7 4.4-1.3 8.8-1.3l1.1.6 5.2 13.2q1.5 3.8 3.6 5.8 2.1 2 4.9 1.9zm6.7 1.2h-7.9l-.1-7.7 1.2-1.3 11.2-.1-3.5 1.7q-.7-.7-1-2.4-.3-1.8-.3-4.3l-.4-30.8 10-1.2h.6l.4 34.7q0 1.2.1 3 0 1.8.1 3.5.2 1.7.4 2.8v.5q-1.8.7-4.4 1.1-2.6.4-6.4.5zm19.9-.3-.5-44.8 10.9-1.2.2.5q-.2 1.1-.3 2.7-.1 1.7-.1 3.4 0 1.6 0 2.9l.4 36.4zm85.8-.9-8.7.1-.1-9 9.9-.1.1 7.7zm-35.7 1.2h.7q1.8 2 3.9 3.4 2 1.2 4.2 1.7 2.1.5 4 .5 1.8 0 3.1-.6 1.3-.6 2.2-.8l-2.6 2.4q1-1.5 1.6-3.9.7-2.5 1-5.5.3-3.1.3-6.3 0-3.3-.3-6.8-.3-3.5-.7-6.8-.4-3.3-1-6l10.1-1.2h.7q.9 5.7 1.3 10.5.5 4.8.5 8.5.1 6.7-1.3 11.6-1.2 4.9-3.7 8-2.4 3.1-5.7 4.6-3.3 1.5-7.3 1.5-3.1.1-5.6-.7-2.5-.8-4.3-2-1.8-1.1-2.9-2.1-1.1-1-1.5-1.4zm6.1-7.2q-2 0-3.4-1.2-1.4-1.3-1.4-3.5 0-2.3 1.3-3.6 1.4-1.3 3.4-1.3 2.1 0 3.4 1.2 1.4 1.3 1.4 3.6 0 2.2-1.3 3.5-1.3 1.3-3.4 1.3zm105.2 5.2-24 .3-.1-9 25.2-.3.1 7.8zm-58.9.6-.1-9 36.5-.4q3.8 0 5.3-1.1 1.5-1.1 1.5-3.3 0-1.8-.9-3.4-.8-1.7-1.9-2.8l4.4.3q-2.5.7-4.3 1-1.8.3-3.4.5-1.5.1-3.3.1l-33.4.4 3.3-9 31.8-.4q2.8 0 5.5-.2 2.8-.2 4.6-.6h.7q1.5 1.3 3.1 3.4 1.6 2.1 2.7 4.5 1.1 2.5 1.1 5 .1 2.8-1.1 5.3-1.1 2.5-4 4.5l-1.8 3.3q-1.7.7-3.8 1.1-2.1.4-4.7.4zm-16.9-7.6 1.2-1.2 11.2-.1-3.5 1.6q-.7-.7-1-2.4-.4-1.7-.4-4.2l-.1-13.7 10-1.2.6-.1.3 24.3-4.4-4.3 12.3-.2.1 7.8-1.2 1.2-25 .3zm122.5 6.4-46.8.6-.1-7.8 1.2-1.3 29.2-.3-2.2 1.3q-3.4-1.7-7.2-4.6-3.7-2.9-7.6-6.6-4-3.9-7.9-8.2l6-8.1h.6q7.4 7.6 12.9 12.7 5.4 5.1 9.3 8 3.9 2.9 6.6 4.1 2.6 1.3 4.4 1.3l4.6-.1v.7z" fill="#213555"/></svg>